<mxfile host="app.diagrams.net" agent="Mozilla/5.0 (Macintosh; Intel Mac OS X 10_15_7) AppleWebKit/537.36 (KHTML, like Gecko) Chrome/131.0.0.0 Safari/537.36" version="24.8.6">
  <diagram name="Page-1" id="42Lr2loaiTtVthXTXAmo">
    <mxGraphModel dx="1026" dy="684" grid="1" gridSize="10" guides="1" tooltips="1" connect="1" arrows="1" fold="1" page="1" pageScale="1" pageWidth="827" pageHeight="1169" math="0" shadow="0">
      <root>
        <mxCell id="0" />
        <mxCell id="1" parent="0" />
        <mxCell id="riKXNj-_bwT1J5fzZDnG-7" value="" style="edgeStyle=orthogonalEdgeStyle;rounded=0;orthogonalLoop=1;jettySize=auto;html=1;" edge="1" parent="1" source="riKXNj-_bwT1J5fzZDnG-1" target="riKXNj-_bwT1J5fzZDnG-6">
          <mxGeometry relative="1" as="geometry" />
        </mxCell>
        <mxCell id="riKXNj-_bwT1J5fzZDnG-1" value="Runs query and tags records" style="shape=process;whiteSpace=wrap;html=1;backgroundOutline=1;" vertex="1" parent="1">
          <mxGeometry x="180" y="180" width="120" height="60" as="geometry" />
        </mxCell>
        <mxCell id="riKXNj-_bwT1J5fzZDnG-3" value="" style="edgeStyle=orthogonalEdgeStyle;rounded=0;orthogonalLoop=1;jettySize=auto;html=1;" edge="1" parent="1" source="riKXNj-_bwT1J5fzZDnG-2" target="riKXNj-_bwT1J5fzZDnG-1">
          <mxGeometry relative="1" as="geometry" />
        </mxCell>
        <mxCell id="riKXNj-_bwT1J5fzZDnG-2" value="DFM" style="shape=umlActor;verticalLabelPosition=bottom;verticalAlign=top;html=1;outlineConnect=0;" vertex="1" parent="1">
          <mxGeometry x="90" y="180" width="30" height="60" as="geometry" />
        </mxCell>
        <mxCell id="riKXNj-_bwT1J5fzZDnG-9" value="" style="edgeStyle=orthogonalEdgeStyle;rounded=0;orthogonalLoop=1;jettySize=auto;html=1;" edge="1" parent="1" source="riKXNj-_bwT1J5fzZDnG-6" target="riKXNj-_bwT1J5fzZDnG-8">
          <mxGeometry relative="1" as="geometry" />
        </mxCell>
        <mxCell id="riKXNj-_bwT1J5fzZDnG-6" value="Integration extracts tagged records and loads staging object" style="whiteSpace=wrap;html=1;" vertex="1" parent="1">
          <mxGeometry x="180" y="320" width="120" height="60" as="geometry" />
        </mxCell>
        <mxCell id="riKXNj-_bwT1J5fzZDnG-8" value="Trigger on Process objects fans out staging object records" style="whiteSpace=wrap;html=1;" vertex="1" parent="1">
          <mxGeometry x="180" y="460" width="120" height="60" as="geometry" />
        </mxCell>
      </root>
    </mxGraphModel>
  </diagram>
</mxfile>
